HIERARCHY
ROOT Hip
{
  OFFSET 0.000000 0.000000 0.000000
  CHANNELS 6 Xposition Yposition Zposition Zrotation Xrotation Yrotation
  JOINT RHip
  {
    OFFSET 0.000000 0.000000 0.000000
    CHANNELS 3 Xposition Yposition Zposition
    End Site
    {
      OFFSET 0.000000 0.100000 0.000000
    }
  }
  JOINT RKnee
  {
    OFFSET 0.000000 0.000000 0.000000
    CHANNELS 3 Xposition Yposition Zposition
    End Site
    {
      OFFSET 0.000000 0.100000 0.000000
    }
  }
  JOINT RFoot
  {
    OFFSET 0.000000 0.000000 0.000000
    CHANNELS 3 Xposition Yposition Zposition
    End Site
    {
      OFFSET 0.000000 0.100000 0.000000
    }
  }
  JOINT LHip
  {
    OFFSET 0.000000 0.000000 0.000000
    CHANNELS 3 Xposition Yposition Zposition
    End Site
    {
      OFFSET 0.000000 0.100000 0.000000
    }
  }
  JOINT LKnee
  {
    OFFSET 0.000000 0.000000 0.000000
    CHANNELS 3 Xposition Yposition Zposition
    End Site
    {
      OFFSET 0.000000 0.100000 0.000000
    }
  }
  JOINT LFoot
  {
    OFFSET 0.000000 0.000000 0.000000
    CHANNELS 3 Xposition Yposition Zposition
    End Site
    {
      OFFSET 0.000000 0.100000 0.000000
    }
  }
  JOINT Spine
  {
    OFFSET 0.000000 0.000000 0.000000
    CHANNELS 3 Xposition Yposition Zposition
    End Site
    {
      OFFSET 0.000000 0.100000 0.000000
    }
  }
  JOINT Thorax
  {
    OFFSET 0.000000 0.000000 0.000000
    CHANNELS 3 Xposition Yposition Zposition
    End Site
    {
      OFFSET 0.000000 0.100000 0.000000
    }
  }
  JOINT Nose
  {
    OFFSET 0.000000 0.000000 0.000000
    CHANNELS 3 Xposition Yposition Zposition
    End Site
    {
      OFFSET 0.000000 0.100000 0.000000
    }
  }
  JOINT Head
  {
    OFFSET 0.000000 0.000000 0.000000
    CHANNELS 3 Xposition Yposition Zposition
    End Site
    {
      OFFSET 0.000000 0.100000 0.000000
    }
  }
  JOINT LShoulder
  {
    OFFSET 0.000000 0.000000 0.000000
    CHANNELS 3 Xposition Yposition Zposition
    End Site
    {
      OFFSET 0.000000 0.100000 0.000000
    }
  }
  JOINT LElbow
  {
    OFFSET 0.000000 0.000000 0.000000
    CHANNELS 3 Xposition Yposition Zposition
    End Site
    {
      OFFSET 0.000000 0.100000 0.000000
    }
  }
  JOINT LWrist
  {
    OFFSET 0.000000 0.000000 0.000000
    CHANNELS 3 Xposition Yposition Zposition
    End Site
    {
      OFFSET 0.000000 0.100000 0.000000
    }
  }
  JOINT RShoulder
  {
    OFFSET 0.000000 0.000000 0.000000
    CHANNELS 3 Xposition Yposition Zposition
    End Site
    {
      OFFSET 0.000000 0.100000 0.000000
    }
  }
  JOINT RElbow
  {
    OFFSET 0.000000 0.000000 0.000000
    CHANNELS 3 Xposition Yposition Zposition
    End Site
    {
      OFFSET 0.000000 0.100000 0.000000
    }
  }
  JOINT RWrist
  {
    OFFSET 0.000000 0.000000 0.000000
    CHANNELS 3 Xposition Yposition Zposition
    End Site
    {
      OFFSET 0.000000 0.100000 0.000000
    }
  }
}
MOTION
Frames: 13
Frame Time: 0.041667
-0.000001 0.293450 0.000069 0.000000 0.000000 0.000000 -0.164397 0.020619 0.188223 0.327080 0.048825 0.701021 -0.255994 -0.148102 0.629125 0.164395 -0.020499 -0.188302 0.525714 0.002839 0.425780 -0.111584 -0.078442 0.926420 -0.041192 0.441441 -0.256239 -0.021030 0.912707 -0.248577 0.226554 1.307140 -0.224495 -0.157527 1.287187 -0.228076 0.180486 0.805672 -0.466552 0.243885 0.272434 -0.496724 0.487243 -0.033575 -0.321291 -0.247077 0.861560 -0.058200 -0.201945 0.364961 0.005059 0.066751 0.015178 0.057763
-0.000001 0.293450 0.000071 0.000000 0.000000 0.000000 -0.173095 0.025120 0.189015 0.357723 0.099796 0.740085 -0.250043 -0.085259 0.668619 0.173095 -0.024998 -0.189096 0.546926 0.053101 0.428152 -0.106696 -0.009209 0.949985 -0.039561 0.455608 -0.269005 -0.005202 0.925377 -0.251883 0.241894 1.359293 -0.229991 -0.184175 1.329475 -0.250414 0.204796 0.822806 -0.478656 0.263071 0.282524 -0.518078 0.519884 -0.065090 -0.344746 -0.240117 0.871967 -0.057094 -0.192274 0.369022 -0.006167 0.086313 0.007197 0.025569
-0.000001 0.293448 0.000072 0.000000 0.000000 0.000000 -0.178663 0.027259 0.190899 0.379157 0.139644 0.768448 -0.247509 -0.028005 0.696152 0.178664 -0.027134 -0.190979 0.566203 0.093142 0.423066 -0.096986 0.053213 0.977194 -0.036632 0.464073 -0.278476 0.003872 0.930163 -0.254955 0.251226 1.394070 -0.237146 -0.204179 1.358490 -0.262411 0.220473 0.834259 -0.488973 0.279208 0.287069 -0.533152 0.554821 -0.099740 -0.365957 -0.235777 0.878042 -0.056962 -0.185344 0.367719 -0.018959 0.095861 -0.006217 -0.001043
-0.000001 0.293447 0.000072 0.000000 0.000000 0.000000 -0.178720 0.027417 0.194164 0.386870 0.158931 0.779395 -0.250390 0.009953 0.702751 0.178719 -0.027286 -0.194244 0.580748 0.111760 0.406661 -0.080497 0.090806 1.004168 -0.033158 0.462774 -0.283002 0.003024 0.923942 -0.257541 0.251279 1.400217 -0.245800 -0.211535 1.365822 -0.259212 0.222733 0.835354 -0.496275 0.288991 0.282879 -0.539046 0.583442 -0.131598 -0.380058 -0.235109 0.878096 -0.056984 -0.184110 0.359678 -0.029640 0.094022 -0.021975 -0.010796
-0.000001 0.293445 0.000077 0.000000 0.000000 0.000000 -0.177160 0.029373 0.197139 0.393047 0.170509 0.786447 -0.254108 0.030724 0.703146 0.177158 -0.029239 -0.197225 0.592012 0.119834 0.389450 -0.064474 0.106214 1.023027 -0.031529 0.458961 -0.286894 0.001463 0.917826 -0.259817 0.250015 1.399947 -0.253067 -0.213926 1.368419 -0.254951 0.222954 0.832998 -0.502599 0.295518 0.277411 -0.544135 0.598031 -0.152804 -0.388340 -0.234492 0.878137 -0.055354 -0.185525 0.352882 -0.034074 0.095762 -0.029997 -0.007696
-0.000001 0.293445 0.000080 0.000000 0.000000 0.000000 -0.176263 0.031168 0.198429 0.396781 0.175372 0.790102 -0.255834 0.036807 0.702905 0.176261 -0.031033 -0.198522 0.596965 0.121999 0.381384 -0.057072 0.108311 1.029781 -0.031400 0.456952 -0.289056 0.001248 0.915676 -0.260901 0.249679 1.399930 -0.256128 -0.214439 1.369870 -0.253676 0.223467 0.831443 -0.505714 0.298200 0.274910 -0.547211 0.601010 -0.160065 -0.391118 -0.233892 0.878657 -0.053929 -0.186710 0.350441 -0.034292 0.098852 -0.031133 -0.002988
-0.000001 0.293444 0.000081 0.000000 0.000000 0.000000 -0.176119 0.031643 0.198679 0.397789 0.176352 0.790857 -0.256183 0.037865 0.702839 0.176116 -0.031507 -0.198774 0.597931 0.122470 0.379970 -0.055549 0.108532 1.031185 -0.031469 0.456514 -0.289569 0.001306 0.915311 -0.261118 0.249774 1.399988 -0.256670 -0.214423 1.370188 -0.253505 0.223705 0.831130 -0.506426 0.298819 0.274466 -0.548097 0.601494 -0.160943 -0.391782 -0.233797 0.878851 -0.053530 -0.187101 0.350095 -0.034166 0.099674 -0.031193 -0.001633
-0.000001 0.293444 0.000083 0.000000 0.000000 0.000000 -0.176646 0.031940 0.198738 0.399934 0.177007 0.790565 -0.256295 0.040253 0.702953 0.176644 -0.031804 -0.198835 0.597931 0.124829 0.382328 -0.054927 0.112080 1.034093 -0.031826 0.456257 -0.290134 0.001816 0.915129 -0.261090 0.251459 1.400331 -0.256366 -0.213589 1.370025 -0.253560 0.224754 0.831661 -0.507290 0.300428 0.275115 -0.550407 0.604906 -0.156881 -0.394117 -0.234534 0.879251 -0.052977 -0.188372 0.350777 -0.034398 0.099313 -0.032553 -0.000457
-0.000001 0.293444 0.000089 0.000000 0.000000 0.000000 -0.179116 0.033111 0.198955 0.409670 0.180154 0.789724 -0.255686 0.051146 0.704200 0.179114 -0.032974 -0.199062 0.597310 0.135942 0.393580 -0.052992 0.128677 1.046372 -0.033439 0.455430 -0.292564 0.004193 0.914356 -0.260814 0.259278 1.401881 -0.254633 -0.209961 1.368966 -0.253674 0.229617 0.834194 -0.510945 0.308043 0.278090 -0.560839 0.620688 -0.138349 -0.404669 -0.238057 0.880726 -0.050502 -0.194259 0.353508 -0.035410 0.096668 -0.038869 0.004622
-0.000001 0.293444 0.000101 0.000000 0.000000 0.000000 -0.183414 0.035099 0.199494 0.427540 0.187825 0.791745 -0.250223 0.071494 0.709444 0.183412 -0.034959 -0.199622 0.595133 0.157092 0.412474 -0.051054 0.159184 1.065451 -0.036227 0.454795 -0.296856 0.008547 0.912666 -0.260039 0.273199 1.404456 -0.250864 -0.204546 1.366184 -0.252854 0.238587 0.838330 -0.517082 0.323011 0.282291 -0.579670 0.649141 -0.108620 -0.423580 -0.244625 0.881967 -0.045805 -0.205395 0.355892 -0.036657 0.088942 -0.050031 0.014412
-0.000001 0.293443 0.000111 0.000000 0.000000 0.000000 -0.186427 0.036269 0.200210 0.440924 0.197324 0.798338 -0.240187 0.089548 0.717815 0.186426 -0.036128 -0.200357 0.591868 0.175509 0.424183 -0.051819 0.184305 1.075271 -0.038200 0.455544 -0.300051 0.011878 0.910574 -0.259002 0.283304 1.405826 -0.246911 -0.202507 1.362217 -0.250419 0.245652 0.840756 -0.521033 0.335835 0.283660 -0.593819 0.670747 -0.091835 -0.437726 -0.250070 0.880352 -0.042017 -0.214770 0.353461 -0.037259 0.077839 -0.058291 0.022562
-0.000001 0.293443 0.000116 0.000000 0.000000 0.000000 -0.187454 0.035950 0.201023 0.443600 0.205579 0.801948 -0.236886 0.104749 0.722295 0.187453 -0.035807 -0.201179 0.589992 0.187041 0.425266 -0.052617 0.199995 1.076150 -0.039154 0.455919 -0.301458 0.012852 0.907761 -0.258065 0.286588 1.404691 -0.244139 -0.204044 1.357425 -0.247285 0.248436 0.841211 -0.522107 0.340047 0.283148 -0.598680 0.679661 -0.088201 -0.443142 -0.253226 0.876749 -0.040730 -0.219919 0.348848 -0.039733 0.067514 -0.062212 0.025251
-0.000001 0.293442 0.000121 0.000000 0.000000 0.000000 -0.187586 0.035061 0.202084 0.441602 0.212217 0.801059 -0.242256 0.120453 0.721302 0.187585 -0.034917 -0.202249 0.590836 0.195848 0.420667 -0.051481 0.212355 1.071741 -0.040038 0.454311 -0.301363 0.012344 0.904114 -0.256461 0.287866 1.400627 -0.241403 -0.205980 1.352170 -0.243202 0.249203 0.841136 -0.521760 0.339653 0.282352 -0.599222 0.683689 -0.087066 -0.444943 -0.256211 0.872911 -0.039710 -0.224855 0.344586 -0.044486 0.058010 -0.065041 0.025608
